<?xml version="1.0" standalone="no"?>
<!DOCTYPE svg PUBLIC "-//W3C//DTD SVG 20010904//EN"
 "http://www.w3.org/TR/2001/REC-SVG-20010904/DTD/svg10.dtd">
<svg version="1.0" xmlns="http://www.w3.org/2000/svg"
 width="450.000000pt" height="450.000000pt" viewBox="0 0 450.000000 450.000000"
 preserveAspectRatio="xMidYMid meet">

<g transform="translate(0.000000,450.000000) scale(0.100000,-0.100000)"
fill="#000000" stroke="none">
<path d="M4073 4053 c-45 -4 -53 -7 -61 -31 -5 -15 -110 -241 -232 -502 -122
-261 -249 -533 -282 -605 -33 -71 -61 -132 -63 -134 -4 -4 -134 48 -147 59 -4
3 -3 68 2 145 14 186 70 1018 70 1029 0 11 -241 0 -310 -15 -38 -8 -50 -15
-50 -29 0 -10 7 -101 15 -202 33 -417 65 -842 65 -877 l0 -37 -67 -18 c-38
-10 -74 -20 -81 -23 -7 -3 -20 14 -34 44 -11 26 -64 138 -117 248 -53 110
-123 257 -156 327 -33 70 -63 128 -66 128 -3 0 -49 -59 -102 -130 l-97 -131
59 -87 c33 -48 96 -139 140 -202 44 -63 109 -159 146 -212 l66 -97 -47 -63
c-26 -35 -49 -64 -50 -66 -1 -2 -128 81 -283 183 -155 102 -285 185 -290 185
-4 0 -50 -57 -102 -127 -89 -121 -193 -260 -503 -678 -73 -99 -335 -452 -581
-785 -246 -333 -469 -630 -494 -660 -65 -78 -160 -170 -243 -237 l-71 -58
1703 -3 c937 -1 1705 0 1707 2 6 6 273 1388 273 1411 0 6 -23 25 -50 44 -28
19 -48 39 -46 45 3 6 13 37 23 68 19 62 21 63 72 48 19 -5 37 -8 39 -6 7 8 39
186 34 191 -3 3 -29 5 -58 5 -58 0 -54 -6 -69 96 l-6 41 88 38 c48 20 89 38
91 40 8 7 58 295 51 295 -5 0 -46 -26 -91 -58 -176 -122 -199 -135 -206 -126
-34 39 -83 118 -79 128 3 7 121 188 262 402 142 214 262 403 267 421 12 45
108 545 108 566 0 18 -15 19 -147 10z m-729 -1338 c200 -99 320 -302 320 -545
0 -123 -22 -210 -79 -305 -93 -155 -231 -235 -405 -235 -226 0 -432 179 -494
431 -21 84 -21 233 0 313 36 139 139 277 247 332 83 43 133 54 237 51 88 -2
101 -6 174 -42z m-990 -209 c65 -20 146 -60 146 -72 0 -12 -114 -271 -123
-280 -3 -3 -29 5 -59 18 -38 16 -71 23 -118 23 -112 -1 -185 -56 -216 -162
-22 -75 -14 -149 26 -229 33 -69 93 -118 157 -130 47 -9 120 2 157 24 28 17
31 23 29 67 -1 26 -5 51 -10 56 -4 4 -43 0 -86 -11 -56 -13 -80 -15 -82 -6
-15 44 -44 221 -38 227 5 4 51 16 103 28 52 11 153 34 224 51 71 17 132 27
136 23 4 -5 30 -120 59 -256 l52 -248 -46 -55 c-125 -146 -331 -234 -519 -221
-347 22 -580 370 -494 737 51 219 255 402 483 434 46 6 173 -4 219 -18z m1175
-1037 c6 -29 9 -54 7 -57 -3 -3 -29 -10 -58 -17 -35 -8 -52 -17 -51 -26 1 -8
18 -90 38 -183 20 -93 34 -176 33 -184 -2 -10 -24 -20 -58 -28 -30 -7 -56 -11
-57 -10 -2 1 -19 81 -38 177 -47 228 -41 212 -76 205 -16 -3 -42 -9 -58 -12
-27 -6 -29 -4 -41 46 -7 29 -9 55 -4 59 5 4 65 20 134 35 69 15 136 32 150 36
57 19 68 14 79 -41z m-500 -98 l22 -12 -28 -49 -27 -48 -51 5 c-61 6 -95 -8
-95 -40 0 -38 16 -45 89 -39 89 6 136 -15 162 -72 22 -49 24 -117 4 -155 -43
-84 -178 -131 -288 -100 -49 13 -54 28 -25 75 24 38 24 38 95 38 76 1 113 20
113 57 0 28 -27 37 -94 32 -106 -9 -165 33 -180 128 -12 78 48 162 134 188 42
12 139 8 169 -8z m-499 -124 c73 -49 96 -147 51 -220 -26 -42 -27 -38 51 -134
32 -39 58 -76 58 -81 0 -5 -12 -12 -27 -16 -16 -3 -45 -10 -66 -15 l-39 -9
-61 84 c-88 120 -109 114 -78 -24 l18 -84 -21 -8 c-37 -14 -106 -22 -106 -13
0 5 -23 117 -50 248 -28 131 -47 242 -43 246 15 13 177 47 229 48 37 1 60 -5
84 -22z m-456 -187 c53 -246 77 -372 73 -376 -12 -12 -112 -33 -117 -24 -10
16 -103 490 -97 496 10 10 102 31 109 25 4 -4 18 -58 32 -121z m-280 23 c4
-21 9 -45 12 -54 4 -15 -51 -33 -168 -54 -21 -4 -38 -10 -38 -14 0 -9 21 -81
23 -81 1 0 36 9 77 20 41 11 80 20 86 20 11 0 37 -97 29 -110 -2 -4 -32 -13
-66 -19 -34 -7 -72 -16 -84 -21 l-23 -9 19 -83 c10 -46 19 -88 19 -95 0 -18
-109 -40 -119 -24 -6 9 -98 436 -105 485 -1 9 260 74 305 75 23 1 28 -4 33
-36z"/>
<path d="M3090 2414 c-82 -35 -123 -105 -124 -209 -1 -57 4 -80 25 -120 65
-128 216 -163 308 -73 46 45 71 102 71 167 0 74 -17 124 -59 172 -61 72 -145
96 -221 63z"/>
<path d="M2376 1143 c-15 -4 -17 -11 -12 -45 9 -55 13 -59 44 -52 63 15 92 60
60 92 -12 12 -55 14 -92 5z"/>
</g>
</svg>
